<svg id="visual" viewBox="0 0 900 600" width="900" height="600" xmlns="http://www.w3.org/2000/svg" xmlns:xlink="http://www.w3.org/1999/xlink" version="1.1"><rect x="0" y="0" width="900" height="600" fill="#07010b"></rect><path d="M0 196L15 219.5C30 243 60 290 90 287.3C120 284.7 150 232.3 180 229.7C210 227 240 274 270 310.7C300 347.3 330 373.7 360 392.5C390 411.3 420 422.7 450 395.2C480 367.7 510 301.3 540 268.5C570 235.7 600 236.3 630 261.5C660 286.7 690 336.3 720 345.2C750 354 780 322 810 296.3C840 270.7 870 251.3 885 241.7L900 232L900 601L885 601C870 601 840 601 810 601C780 601 750 601 720 601C690 601 660 601 630 601C600 601 570 601 540 601C510 601 480 601 450 601C420 601 390 601 360 601C330 601 300 601 270 601C240 601 210 601 180 601C150 601 120 601 90 601C60 601 30 601 15 601L0 601Z" fill="#7400ff" stroke-linecap="round" stroke-linejoin="miter"></path></svg>